<svg xmlns="http://www.w3.org/2000/svg" viewBox="0 0 16 16"><defs><style>.cls-1{fill:none;}</style></defs><title>safari-pinned-tab</title><g id="Layer_2" data-name="Layer 2"><g id="Layer_1-2" data-name="Layer 1"><rect class="cls-1" width="16" height="16"/><path d="M3.45,3.51v9.68A2.78,2.78,0,0,1,3,14.67,2.78,2.78,0,0,1,.66,16,2.73,2.73,0,0,1,0,15.9a2.41,2.41,0,0,0,.66-1.66V3.51Z"/><path d="M9.72,8v6.62H6.93V8A1.74,1.74,0,0,0,3.45,8V3.86a4.52,4.52,0,0,1,4.88.92A4.52,4.52,0,0,1,9.72,8Z"/><path d="M16,8v6.62H13.21V8A1.74,1.74,0,0,0,9.72,8,4.52,4.52,0,0,0,8.33,4.77a4.53,4.53,0,0,1,4.88-.92A4.54,4.54,0,0,1,16,8Z"/><circle cx="2.05" cy="1.42" r="1.39"/></g></g></svg>